<svg xmlns="http://www.w3.org/2000/svg" viewBox="0 0 48.94 54.04"><g data-name="Layer 2"><g data-name="Layer 1"><path d="M3.87 9A25.57 25.57 0 0 1 21.5 2a25.23 25.23 0 0 1 25.44 25A25.23 25.23 0 0 1 21.5 52a26.81 26.81 0 0 1-4.42-.37l1.74-2.46A26 26 0 0 0 5.07 9.34z" style="fill:#f5b952"/><path d="M3.87 9A25.57 25.57 0 0 1 21.5 2a25.23 25.23 0 0 1 25.44 25A25.23 25.23 0 0 1 21.5 52a26.81 26.81 0 0 1-4.42-.37l1.74-2.46A26 26 0 0 0 5.07 9.34z" style="fill:none;stroke:#000;stroke-miterlimit:10;stroke-width:4px"/></g></g></svg>