<svg xmlns="http://www.w3.org/2000/svg" viewBox="0 0 84.3 84.3"><defs><style>.cls-3,.cls-4{fill:none;stroke:#000;stroke-miterlimit:10}.cls-4{stroke-width:5px}.cls-3,.cls-4{stroke-linecap:round}.cls-3{stroke-width:4px}</style></defs><g id="Layer_2" data-name="Layer 2"><g id="Layer_1-2" data-name="Layer 1"><circle cx="42.48" cy="42.15" r="18.72" style="fill:#f5b952"/><path d="M42.19 23.2A18.84 18.84 0 1 0 61 42a18.86 18.86 0 0 0-18.81-18.8z" style="stroke-width:5px;fill:none;stroke:#000;stroke-miterlimit:10"/><path class="cls-3" d="M42.15 14.23V6.07M42.15 78.23v-8.16M14.23 42.15H6.07M78.23 42.15h-8.16M22.41 22.41l-5.77-5.77M67.66 67.66l-5.77-5.77M22.41 61.89l-5.77 5.77M67.66 16.64l-5.77 5.77"/><path class="cls-4" d="m54.63 11.47 3.65-8.97M26.02 81.8l3.65-8.97M11.47 29.67 2.5 26.02M81.8 58.28l-8.97-3.65M29.28 11.63l-3.76-8.92M58.78 81.59l-3.76-8.92M11.63 55.02l-8.92 3.76M81.59 25.52l-8.92 3.76"/></g></g></svg>