<svg xmlns="http://www.w3.org/2000/svg" viewBox="0 0 76.26 49.64"><defs><style>.cls-3{stroke-miterlimit:10;fill:#b9e4fa;stroke:#231f20;stroke-width:3px}</style></defs><g id="Layer_2" data-name="Layer 2"><g id="Layer_1-2" data-name="Layer 1"><path d="M73.41 23a10.14 10.14 0 0 0-1.94-3.8A9.7 9.7 0 0 0 69 16.87a10.46 10.46 0 0 0-4.21-1.57c-.21 0-.46-.32-.56-.55A10.26 10.26 0 0 0 53.29 8a18.22 18.22 0 0 0-3.62 1 1.09 1.09 0 0 1-1.21-.43 12.26 12.26 0 0 0-4.7-4 14.18 14.18 0 0 0-2.09-.82c-.37-.1-.74-.21-1.12-.29a10.22 10.22 0 0 0-3-.18 12.17 12.17 0 0 0-1.22.14 11.56 11.56 0 0 0-1.18.24L35 3.62a21.36 21.36 0 0 0-4.26 2.1 30 30 0 0 0-3.5 3.46h-.1a11.44 11.44 0 0 0-5.29-1.38 9.84 9.84 0 0 0-4.66 1.13 11 11 0 0 0-4.83 5.2A2.25 2.25 0 0 1 11 15.15a11.2 11.2 0 0 0-2.89 1 9.67 9.67 0 0 0-3.66 3.25c-.14.22-.29.43-.43.67a12.18 12.18 0 0 0-1.35 3.53 9.25 9.25 0 0 0 0 3.46 10.32 10.32 0 0 0 8.47 8.54 1.16 1.16 0 0 1 1 .87 10.22 10.22 0 0 0 8.48 6.62 10 10 0 0 0 5.85-1 1 1 0 0 1 1.28.33 12.65 12.65 0 0 0 20.63.1 1 1 0 0 1 1.28-.32 10.34 10.34 0 0 0 14.46-5.71.85.85 0 0 1 .79-.6A10.34 10.34 0 0 0 73.41 23z" style="fill:#e5f1fb"/><path d="M73.4 22.15a9.69 9.69 0 0 0-1.72-3.46 10.33 10.33 0 0 0-3.24-2.93 10.58 10.58 0 0 0-3.7-1.24 1 1 0 0 1-.56-.55 10.26 10.26 0 0 0-11-6.7 16.2 16.2 0 0 0-3.43.92 1.32 1.32 0 0 1-1.47-.46 12.37 12.37 0 0 0-4.62-3.93 13.2 13.2 0 0 0-2.1-.8c-.36-.11-.73-.21-1.12-.29a10.53 10.53 0 0 0-3-.17 12 12 0 0 0-1.22.15A11 11 0 0 0 35 3a22.08 22.08 0 0 0-4.32 2.16 30.78 30.78 0 0 0-3.48 3.47l-.1-.05a11.55 11.55 0 0 0-5.3-1.35 9.79 9.79 0 0 0-4.7 1.1 11.12 11.12 0 0 0-5 5.62 1.12 1.12 0 0 1-.76.6A11.52 11.52 0 0 0 8 15.63a9.65 9.65 0 0 0-3.6 3.28c-.15.22-.3.44-.44.68a12.13 12.13 0 0 0-1.33 3.53 9.24 9.24 0 0 0 0 3.47 10.32 10.32 0 0 0 8.51 8.49 1.19 1.19 0 0 1 1 .86 10.24 10.24 0 0 0 8.51 6.59 10.1 10.1 0 0 0 5.91-1.06 1 1 0 0 1 1.22.35 12.65 12.65 0 0 0 20.88-.37.46.46 0 0 1 .62-.16 10.35 10.35 0 0 0 14.83-5.58.85.85 0 0 1 .79-.6 10.36 10.36 0 0 0 8.5-12.96z" style="stroke-miterlimit:10;fill:none;stroke:#000;stroke-width:5px"/><path class="cls-3" d="M22 19.06c-.93 2.1-2 4.15-2.81 6.28a3 3 0 0 0 2.11 4 3 3 0 0 0 3.48-4c-.78-2.12-1.84-4.18-2.78-6.28zM55.85 19.06c-.93 2.1-2 4.15-2.81 6.28a3 3 0 0 0 2.11 4 3 3 0 0 0 3.48-4c-.84-2.12-1.86-4.18-2.78-6.28zM38.41 16c-1.48 3.33-3.12 6.6-4.47 10-1.1 2.78.51 5.46 3.35 6.35a4.51 4.51 0 0 0 2.39-.06c2.77-1 4.23-3.52 3.15-6.27-1.33-3.4-2.96-6.68-4.42-10.02z"/></g></g></svg>