<svg xmlns="http://www.w3.org/2000/svg" viewBox="0 0 95.87 85.74"><defs><style>.cls-3,.cls-5,.cls-6,.cls-7{fill:none;stroke:#000;stroke-miterlimit:10}.cls-3{stroke-width:1.5px}.cls-5,.cls-7{stroke-width:5px}.cls-6,.cls-7{stroke-linecap:round}.cls-6{stroke-width:4px}</style></defs><g id="Layer_2" data-name="Layer 2"><g id="Layer_1-2" data-name="Layer 1"><path d="M93 59a10.14 10.14 0 0 0-1.94-3.8 9.86 9.86 0 0 0-2.47-2.31 10.52 10.52 0 0 0-4.21-1.57 1 1 0 0 1-.56-.55A10.26 10.26 0 0 0 72.9 44a18.22 18.22 0 0 0-3.62 1 1.08 1.08 0 0 1-1.21-.43 12.26 12.26 0 0 0-4.7-4 14.18 14.18 0 0 0-2.09-.82c-.37-.1-.74-.21-1.12-.29a10.22 10.22 0 0 0-3-.18 12.17 12.17 0 0 0-1.22.14 11.56 11.56 0 0 0-1.18.24l-.13.05a21.36 21.36 0 0 0-4.26 2.1 30 30 0 0 0-3.5 3.46h-.1a11.44 11.44 0 0 0-5.29-1.38 9.84 9.84 0 0 0-4.66 1.13A11 11 0 0 0 32 50.09a2.25 2.25 0 0 1-1.38 1.07 11.2 11.2 0 0 0-2.89 1 9.59 9.59 0 0 0-3.63 3.26c-.14.22-.3.43-.43.67a12.18 12.18 0 0 0-1.35 3.53 9 9 0 0 0 0 3.46 10.32 10.32 0 0 0 8.47 8.54 1.16 1.16 0 0 1 1 .87 10.22 10.22 0 0 0 8.48 6.62 10 10 0 0 0 5.85-1 1 1 0 0 1 1.28.33 12.65 12.65 0 0 0 20.63.1 1 1 0 0 1 1.28-.32 10.34 10.34 0 0 0 14.42-5.72.85.85 0 0 1 .79-.6A10.35 10.35 0 0 0 93 59z" style="fill:#e5f1fb"/><path d="M59.92 37.91c-.07 1.54-11.49 2.68-23.87 8.17-9.45 4.19-12.81 7.23-12.81-3.08A18.73 18.73 0 0 1 42 24.25c10.31 0 18.31 5.36 17.92 13.66z" style="fill:#f5b952"/><path class="cls-3" d="M40.83 56.21v3.91M39.44 54.79l1.4 1.4 1.41-1.42M40.86 66.09v-3.92M42.25 67.5l-1.4-1.39-1.41 1.41M45.03 63.78l-3.32-2.08M45.49 65.71l-.44-1.92 1.94-.45M36.66 58.52l3.32 2.07M36.2 56.58l.44 1.93-1.95.45M36.66 63.77l3.32-2.07M36.19 65.7l.45-1.92-1.95-.45M45.03 58.52l-3.32 2.07M45.5 56.59l-.45 1.92 1.95.46"/><circle class="cls-3" cx="40.78" cy="61.16" r="1.38"/><path class="cls-3" d="M76.37 56.21v3.91M74.97 54.79l1.4 1.4 1.42-1.42M76.39 66.09v-3.92M77.79 67.5l-1.4-1.39-1.42 1.41M80.56 63.78l-3.31-2.08M81.02 65.71l-.44-1.92 1.95-.45M72.2 58.52l3.31 2.07M71.73 56.58l.45 1.93-1.95.45M72.19 63.77l3.32-2.07M71.73 65.7l.44-1.92-1.95-.45M80.56 58.52l-3.31 2.07M81.03 56.59l-.45 1.92 1.95.46"/><circle class="cls-3" cx="76.32" cy="61.16" r="1.38"/><path d="M58 52.46c-1.47 3.34-3.11 6.61-4.46 10-1.1 2.78.5 5.45 3.35 6.35a4.42 4.42 0 0 0 2.39-.07c2.77-1 4.23-3.51 3.15-6.26-1.32-3.4-2.95-6.67-4.43-10.02z" style="fill:#b9e4fa;stroke:#231f20;stroke-width:3px;stroke-miterlimit:10"/><path class="cls-5" d="M93 58.42a10 10 0 0 0-1.94-3.79 9.9 9.9 0 0 0-2.47-2.32 10.51 10.51 0 0 0-4.21-1.56c-.21 0-.47-.33-.56-.56a10.27 10.27 0 0 0-10.92-6.76 18.22 18.22 0 0 0-3.62 1 1.08 1.08 0 0 1-1.21-.43 12.23 12.23 0 0 0-4.7-4 13.15 13.15 0 0 0-2.09-.82c-.37-.11-.74-.21-1.12-.29a10.24 10.24 0 0 0-3-.19 12.17 12.17 0 0 0-1.22.14 10.62 10.62 0 0 0-1.18.25h-.13a21.36 21.36 0 0 0-4.26 2.1 30.81 30.81 0 0 0-3.5 3.46h-.1a11.55 11.55 0 0 0-5.29-1.37 9.84 9.84 0 0 0-4.66 1.12A11.06 11.06 0 0 0 32 49.52a2.22 2.22 0 0 1-1.38 1.07 11.2 11.2 0 0 0-2.89 1 9.68 9.68 0 0 0-3.63 3.26c-.14.22-.3.44-.43.68A12.12 12.12 0 0 0 22.28 59a9.1 9.1 0 0 0 0 3.47A10.31 10.31 0 0 0 30.74 71a1.18 1.18 0 0 1 1 .87 10.25 10.25 0 0 0 8.48 6.63 10.11 10.11 0 0 0 5.85-1 1 1 0 0 1 1.28.32A12.66 12.66 0 0 0 68 78a1 1 0 0 1 1.28-.33 10.34 10.34 0 0 0 14.46-5.71.84.84 0 0 1 .79-.59A10.35 10.35 0 0 0 93 58.42z"/><path class="cls-5" d="M60.77 39a18.84 18.84 0 0 0-37.42 3 18.65 18.65 0 0 0 3.09 10.32"/><path class="cls-6" d="M42.15 14.23V6.07M14.23 42.15H6.07M22.41 22.41l-5.77-5.77M67.66 16.64l-5.77 5.77"/><path class="cls-7" d="m54.63 11.47 3.65-8.97M11.47 29.67 2.5 26.02M29.28 11.63l-3.76-8.92M11.63 55.02l-8.92 3.76M81.59 25.52l-8.92 3.76"/></g></g></svg>