<svg xmlns="http://www.w3.org/2000/svg" viewBox="0 0 95.87 85.74"><defs><style>.cls-3{fill:#b9e4fa;stroke:#231f20;stroke-width:3px;stroke-miterlimit:10}.cls-4,.cls-5,.cls-6{stroke-miterlimit:10;fill:none;stroke:#000}.cls-4,.cls-6{stroke-width:5px}.cls-5,.cls-6{stroke-linecap:round}.cls-5{stroke-width:4px}</style></defs><g id="Layer_2" data-name="Layer 2"><g id="Layer_1-2" data-name="Layer 1"><path d="M93 59.16a10.14 10.14 0 0 0-1.94-3.8 9.86 9.86 0 0 0-2.47-2.31 10.67 10.67 0 0 0-4.21-1.57 1 1 0 0 1-.56-.55 10.26 10.26 0 0 0-10.92-6.76 18.22 18.22 0 0 0-3.62 1 1.08 1.08 0 0 1-1.21-.43 12.26 12.26 0 0 0-4.7-4.05 14.18 14.18 0 0 0-2.09-.82c-.37-.1-.74-.21-1.12-.29a10.22 10.22 0 0 0-3-.18 12.17 12.17 0 0 0-1.22.14 11.56 11.56 0 0 0-1.18.24h-.13a21.36 21.36 0 0 0-4.26 2.1 30 30 0 0 0-3.5 3.46h-.1a11.44 11.44 0 0 0-5.29-1.38 9.84 9.84 0 0 0-4.66 1.13A11 11 0 0 0 32 50.26a2.25 2.25 0 0 1-1.38 1.07 11.2 11.2 0 0 0-2.89 1 9.59 9.59 0 0 0-3.63 3.26c-.14.22-.3.43-.43.67a12.18 12.18 0 0 0-1.35 3.53 9 9 0 0 0 0 3.46 10.32 10.32 0 0 0 8.47 8.54 1.16 1.16 0 0 1 1 .87 10.22 10.22 0 0 0 8.48 6.62 10 10 0 0 0 5.85-1 1 1 0 0 1 1.28.33 12.66 12.66 0 0 0 20.6.1 1 1 0 0 1 1.28-.33 10.34 10.34 0 0 0 14.46-5.71.85.85 0 0 1 .79-.6A10.35 10.35 0 0 0 93 59.16z" style="fill:#e5f1fb"/><path d="M59.92 38.42c-.07 1.58-11.49 2.68-23.87 8.17-9.45 4.19-12.81 7.24-12.81-3.11A18.73 18.73 0 0 1 42 24.76c10.31 0 18.31 5.36 17.92 13.66z" style="fill:#f5b952"/><path class="cls-3" d="M41.63 55.68c-.93 2.1-2 4.15-2.81 6.28a3 3 0 0 0 2.11 4 2.7 2.7 0 0 0 1.49 0 3 3 0 0 0 2-3.94c-.85-2.18-1.87-4.24-2.79-6.34zM75.46 55.68c-.93 2.1-2 4.15-2.81 6.28a3 3 0 0 0 2.11 4 2.7 2.7 0 0 0 1.49 0 3 3 0 0 0 2-3.94c-.85-2.18-1.87-4.24-2.79-6.34zM58 52.62c-1.47 3.33-3.11 6.61-4.46 10-1.1 2.78.5 5.46 3.35 6.35a4.51 4.51 0 0 0 2.39-.06c2.77-1 4.23-3.52 3.15-6.27-1.32-3.4-2.95-6.64-4.43-10.02z"/><path class="cls-4" d="M93 58.42a10 10 0 0 0-1.94-3.79 9.9 9.9 0 0 0-2.47-2.32 10.51 10.51 0 0 0-4.21-1.56c-.21 0-.47-.33-.56-.56a10.27 10.27 0 0 0-10.92-6.76 18.22 18.22 0 0 0-3.62 1 1.08 1.08 0 0 1-1.21-.43 12.23 12.23 0 0 0-4.7-4 13.15 13.15 0 0 0-2.09-.82c-.37-.11-.74-.21-1.12-.29a10.24 10.24 0 0 0-3-.19 12.17 12.17 0 0 0-1.22.14 10.62 10.62 0 0 0-1.18.25h-.13a21.36 21.36 0 0 0-4.26 2.1 30.81 30.81 0 0 0-3.5 3.46h-.1a11.55 11.55 0 0 0-5.29-1.37 9.84 9.84 0 0 0-4.66 1.12A11.06 11.06 0 0 0 32 49.52a2.22 2.22 0 0 1-1.38 1.07 11.2 11.2 0 0 0-2.89 1 9.68 9.68 0 0 0-3.63 3.26c-.14.22-.3.44-.43.68A12.12 12.12 0 0 0 22.28 59a9.1 9.1 0 0 0 0 3.47A10.31 10.31 0 0 0 30.74 71a1.18 1.18 0 0 1 1 .87 10.25 10.25 0 0 0 8.48 6.63 10.11 10.11 0 0 0 5.85-1 1 1 0 0 1 1.28.32A12.66 12.66 0 0 0 68 78a1 1 0 0 1 1.28-.33 10.34 10.34 0 0 0 14.46-5.71.84.84 0 0 1 .79-.59A10.35 10.35 0 0 0 93 58.42z"/><path class="cls-4" d="M60.77 39a18.84 18.84 0 0 0-37.42 3 18.65 18.65 0 0 0 3.09 10.32"/><path class="cls-5" d="M42.15 14.23V6.07M14.23 42.15H6.07M22.41 22.41l-5.77-5.77M67.66 16.64l-5.77 5.77"/><path class="cls-6" d="m54.63 11.47 3.65-8.97M11.47 29.67 2.5 26.02M29.28 11.63l-3.76-8.92M11.63 55.02l-8.92 3.76M81.59 25.52l-8.92 3.76"/></g></g></svg>