<svg xmlns="http://www.w3.org/2000/svg" viewBox="0 0 69.13 84.05"><defs><style>.cls-2,.cls-3{fill:none;stroke:#000;stroke-miterlimit:10}.cls-2{stroke-width:2px}.cls-3{stroke-width:5px}</style></defs><g id="Layer_2" data-name="Layer 2"><g id="Layer_1-2" data-name="Layer 1"><circle cx="30.81" cy="50.71" r="5.87" style="fill:#b9e4fa"/><path class="cls-2" d="M58.35 3.17v6.69M55.96.74l2.39 2.39L60.78.71M58.39 20.08v-6.7M60.78 22.51l-2.39-2.4-2.43 2.43M65.53 16.12l-5.68-3.55M66.32 19.44l-.76-3.3 3.34-.77M51.21 7.12l5.68 3.55M50.42 3.81l.76 3.29-3.34.77M51.21 16.11l5.68-3.54M50.41 19.43l.76-3.3-3.33-.78M65.54 7.13l-5.68 3.54M66.33 3.82l-.76 3.29 3.34.78"/><circle class="cls-2" cx="58.26" cy="11.65" r="2.36"/><path class="cls-3" d="M31.07 26.11v19.41M24.14 19.06 31.07 26l7.04-7.02M31.17 75.15V55.73M38.11 82.2l-6.94-6.94-7.03 7.02M51.88 63.68l-16.46-10.3M54.18 73.3l-2.2-9.57 9.68-2.23M10.36 37.58l16.46 10.29M8.06 27.96l2.21 9.56-9.69 2.24M10.34 63.65l16.48-10.27M8.03 73.26l2.21-9.56-9.67-2.25M51.9 37.61 35.42 47.88M54.21 28 52 37.55l9.67 2.26"/><circle class="cls-3" cx="30.81" cy="50.71" r="6.85"/></g></g></svg>