<svg xmlns="http://www.w3.org/2000/svg" viewBox="0 0 95.87 85.74"><defs><style>.cls-3,.cls-4,.cls-5,.cls-6,.cls-7{fill:none;stroke:#000;stroke-miterlimit:10}.cls-3{stroke-width:1.5px}.cls-4{stroke-width:2px}.cls-5,.cls-7{stroke-width:5px}.cls-6,.cls-7{stroke-linecap:round}.cls-6{stroke-width:4px}</style></defs><g id="Layer_2" data-name="Layer 2"><g id="Layer_1-2" data-name="Layer 1"><path d="M92.24 59.26a9.76 9.76 0 0 0-1.91-3.66 9.66 9.66 0 0 0-2.41-2.23 10.34 10.34 0 0 0-4.12-1.51c-.21 0-.45-.31-.55-.54a10.06 10.06 0 0 0-10.7-6.52 18.06 18.06 0 0 0-3.54.94 1.06 1.06 0 0 1-1.18-.42 12 12 0 0 0-4.6-3.9 13.6 13.6 0 0 0-2-.79 10.25 10.25 0 0 0-1.09-.28 10.14 10.14 0 0 0-3-.18c-.44 0-.85.08-1.19.13-.58.1-1 .2-1.15.24h-.13a21.18 21.18 0 0 0-4.17 2A29 29 0 0 0 47.06 46a.55.55 0 1 0-.1-.05 11.39 11.39 0 0 0-5.17-1.33 9.62 9.62 0 0 0-4.56 1.09 10.67 10.67 0 0 0-4.73 5 2.15 2.15 0 0 1-1.34 1 11.09 11.09 0 0 0-2.83.95 9.39 9.39 0 0 0-3.55 3.15c-.14.21-.29.42-.42.65a11.45 11.45 0 0 0-1.36 3.4 8.63 8.63 0 0 0 0 3.34 10 10 0 0 0 8.29 8.24 1.15 1.15 0 0 1 1 .84 10.26 10.26 0 0 0 14 5.43 1 1 0 0 1 1.25.31 12.48 12.48 0 0 0 20.18.1 1 1 0 0 1 1.28-.31 10.16 10.16 0 0 0 14.15-5.51.81.81 0 0 1 .77-.57 10 10 0 0 0 8.32-12.47z" style="fill:#e5f1fb"/><path d="M60.07 37.59c-.07 1.54-11.49 2.68-23.87 8.17C26.75 50 23.39 53 23.39 42.65a18.72 18.72 0 0 1 18.73-18.72c10.34 0 18.34 5.36 17.95 13.66z" style="fill:#f5b952"/><path class="cls-3" d="M38.83 56.16v3.91M37.44 54.74l1.4 1.4 1.41-1.42M38.86 66.04v-3.91M40.25 67.46l-1.4-1.4-1.41 1.41M43.03 63.73l-3.32-2.08M43.49 65.67l-.44-1.93 1.94-.45M34.66 58.47l3.32 2.08M34.2 56.53l.44 1.93-1.95.45M34.66 63.72l3.32-2.07M34.19 65.66l.45-1.93-1.95-.45M43.03 58.48l-3.32 2.07M43.5 56.54l-.45 1.93 1.95.45"/><circle class="cls-3" cx="38.78" cy="61.12" r="1.38"/><path class="cls-4" d="M57.97 54.2v5.46M56.02 52.21l1.95 1.95 1.98-1.97M58 68v-5.46M59.95 69.99 58 68.04l-1.98 1.97M63.83 64.77l-4.63-2.89M64.48 67.48l-.62-2.69 2.72-.63M52.14 57.43l4.64 2.89M51.49 54.72l.62 2.69-2.72.63M52.14 64.77l4.64-2.9M51.48 67.47l.63-2.69-2.73-.63M63.84 57.43l-4.64 2.9M64.49 54.73l-.62 2.69 2.72.63"/><circle class="cls-4" cx="57.9" cy="61.12" r="1.93"/><path class="cls-3" d="M76.37 56.16v3.91M74.97 54.74l1.4 1.4 1.42-1.42M76.39 66.04v-3.91M77.79 67.46l-1.4-1.4-1.42 1.41M80.56 63.73l-3.31-2.08M81.02 65.67l-.44-1.93 1.95-.45M72.2 58.47l3.31 2.08M71.73 56.53l.45 1.93-1.95.45M72.19 63.72l3.32-2.07M71.73 65.66l.44-1.93-1.95-.45M80.56 58.48l-3.31 2.07M81.03 56.54l-.45 1.93 1.95.45"/><circle class="cls-3" cx="76.32" cy="61.12" r="1.38"/><path class="cls-5" d="M93 58.42a10 10 0 0 0-1.94-3.79 9.9 9.9 0 0 0-2.47-2.32 10.51 10.51 0 0 0-4.21-1.56c-.21 0-.47-.33-.56-.56a10.27 10.27 0 0 0-10.92-6.76 18.22 18.22 0 0 0-3.62 1 1.08 1.08 0 0 1-1.21-.43 12.23 12.23 0 0 0-4.7-4 13.15 13.15 0 0 0-2.09-.82c-.37-.11-.74-.21-1.12-.29a10.24 10.24 0 0 0-3-.19 12.17 12.17 0 0 0-1.22.14 10.62 10.62 0 0 0-1.18.25h-.13a21.36 21.36 0 0 0-4.26 2.1 30.81 30.81 0 0 0-3.5 3.46h-.1a11.55 11.55 0 0 0-5.29-1.37 9.84 9.84 0 0 0-4.66 1.12A11.06 11.06 0 0 0 32 49.52a2.22 2.22 0 0 1-1.38 1.07 11.2 11.2 0 0 0-2.89 1 9.68 9.68 0 0 0-3.63 3.26c-.14.22-.3.44-.43.68A12.12 12.12 0 0 0 22.28 59a9.1 9.1 0 0 0 0 3.47A10.31 10.31 0 0 0 30.74 71a1.18 1.18 0 0 1 1 .87 10.25 10.25 0 0 0 8.48 6.63 10.11 10.11 0 0 0 5.85-1 1 1 0 0 1 1.28.32A12.66 12.66 0 0 0 68 78a1 1 0 0 1 1.28-.33 10.34 10.34 0 0 0 14.46-5.71.84.84 0 0 1 .79-.59A10.35 10.35 0 0 0 93 58.42z"/><path class="cls-5" d="M60.77 39a18.84 18.84 0 0 0-37.42 3 18.65 18.65 0 0 0 3.09 10.32"/><path class="cls-6" d="M42.15 14.23V6.07M14.23 42.15H6.07M22.41 22.41l-5.77-5.77M67.66 16.64l-5.77 5.77"/><path class="cls-7" d="m54.63 11.47 3.65-8.97M11.47 29.67 2.5 26.02M29.28 11.63l-3.76-8.92M11.63 55.02l-8.92 3.76M81.59 25.52l-8.92 3.76"/></g></g></svg>