<svg xmlns="http://www.w3.org/2000/svg" viewBox="0 0 76.26 69.69"><defs><style>.cls-3,.cls-4,.cls-5{fill:none;stroke:#000;stroke-miterlimit:10}.cls-3{stroke-width:1.5px}.cls-4{stroke-width:2px}.cls-5{stroke-width:5px}</style></defs><g id="Layer_2" data-name="Layer 2"><g id="Layer_1-2" data-name="Layer 1"><path d="M25.21 26.89c2.34-.46 4.67-1 7-1.48 4.79-1.07 9.79-1.1 14.58-2.15.29-.06.58-.11.86-.14A25.59 25.59 0 0 0 5 9.51l1.2.36c11.92 3.63 19.26 9.06 19.01 17.02z" style="fill:#f5b952"/><path d="M72.63 42.71a9.76 9.76 0 0 0-1.91-3.66 9.48 9.48 0 0 0-2.41-2.23 10.19 10.19 0 0 0-4.12-1.51c-.21 0-.45-.32-.55-.54a10 10 0 0 0-10.7-6.52 18.19 18.19 0 0 0-3.54.93 1 1 0 0 1-1.18-.41 12 12 0 0 0-4.6-3.9 12.61 12.61 0 0 0-2-.79c-.35-.11-.72-.21-1.09-.29a10.43 10.43 0 0 0-3-.17c-.45 0-.85.08-1.2.13a10.94 10.94 0 0 0-1.15.24L35 24a21.18 21.18 0 0 0-4.17 2 29.76 29.76 0 0 0-3.42 3.34h-.1A11.39 11.39 0 0 0 22.18 28a9.65 9.65 0 0 0-4.56 1.09 10.67 10.67 0 0 0-4.73 5 2.18 2.18 0 0 1-1.34 1 11.09 11.09 0 0 0-2.83 1 9.39 9.39 0 0 0-3.55 3.15c-.14.21-.29.42-.42.65a11.34 11.34 0 0 0-1.32 3.4 8.63 8.63 0 0 0 0 3.34 10 10 0 0 0 8.29 8.24 1.16 1.16 0 0 1 1 .84A10 10 0 0 0 21 62.12a9.92 9.92 0 0 0 5.72-1 1 1 0 0 1 1.26.31 12.48 12.48 0 0 0 20.18.1 1 1 0 0 1 1.25-.31 10.16 10.16 0 0 0 14.14-5.51.8.8 0 0 1 .77-.57 10 10 0 0 0 8.31-12.43z" style="fill:#e5f1fb"/><path class="cls-3" d="M19.22 40.5v3.91M17.83 39.08l1.4 1.39 1.41-1.41M19.25 50.37v-3.91M20.64 51.79l-1.39-1.39-1.42 1.41M23.42 48.06l-3.32-2.07M23.88 50l-.44-1.92 1.95-.46M15.05 42.81l3.32 2.07M14.59 40.87l.45 1.93-1.95.45M15.05 48.06l3.32-2.07M14.58 49.99l.45-1.92-1.95-.45M23.42 42.81l-3.32 2.07M23.89 40.88l-.45 1.92 1.95.46"/><circle class="cls-3" cx="19.17" cy="45.45" r="1.38"/><path class="cls-4" d="M38.36 38.53V44M36.41 36.55l1.96 1.95 1.97-1.98M38.39 52.34v-5.47M40.34 54.32l-1.95-1.95-1.98 1.98M44.22 49.11l-4.63-2.9M44.87 51.82l-.62-2.69 2.73-.64M32.53 41.76l4.64 2.9M31.89 39.05l.62 2.69-2.73.64M32.53 49.1l4.64-2.89M31.88 51.81l.62-2.69-2.73-.64M44.23 41.77l-4.64 2.89M44.88 39.06l-.62 2.69 2.72.64"/><circle class="cls-4" cx="38.29" cy="45.46" r="1.93"/><path class="cls-3" d="M56.76 40.5v3.91M55.36 39.08l1.4 1.39 1.42-1.41M56.78 50.37v-3.91M58.18 51.79l-1.4-1.39-1.42 1.41M60.95 48.06l-3.31-2.07M61.41 50l-.44-1.92 1.95-.46M52.59 42.81l3.31 2.07M52.13 40.87l.44 1.93-1.95.45M52.59 48.06l3.31-2.07M52.12 49.99l.44-1.92-1.94-.45M60.96 42.81l-3.32 2.07M61.42 40.88l-.44 1.92 1.94.46"/><circle class="cls-3" cx="56.71" cy="45.45" r="1.38"/><path class="cls-5" d="M49.57 28.3v-.78a25.24 25.24 0 0 0-25.45-25 25.57 25.57 0 0 0-17.62 7l1.2.36a25.89 25.89 0 0 1 17.52 18"/><path class="cls-5" d="M73.4 42.2a9.53 9.53 0 0 0-1.72-3.46 10.24 10.24 0 0 0-3.24-2.94 10.36 10.36 0 0 0-3.7-1.23c-.21 0-.47-.33-.56-.55a10.25 10.25 0 0 0-11-6.71 16.79 16.79 0 0 0-3.36.9 1.42 1.42 0 0 1-1.58-.49 12.25 12.25 0 0 0-4.61-3.87 14.27 14.27 0 0 0-2.1-.81c-.36-.1-.73-.21-1.12-.29a10.17 10.17 0 0 0-3-.16A12.47 12.47 0 0 0 35 23a22 22 0 0 0-4.32 2.15 30.89 30.89 0 0 0-3.48 3.48c.09 0 0 0-.1-.05a11.43 11.43 0 0 0-5.3-1.35 9.9 9.9 0 0 0-4.65 1.14 11.16 11.16 0 0 0-5 5.62 1.12 1.12 0 0 1-.76.6A11.53 11.53 0 0 0 8 35.68 9.65 9.65 0 0 0 4.43 39c-.15.22-.3.44-.44.67a12.3 12.3 0 0 0-1.33 3.54 9.18 9.18 0 0 0 0 3.46 10.31 10.31 0 0 0 8.51 8.49 1.2 1.2 0 0 1 1 .87 10.21 10.21 0 0 0 8.51 6.58 9.91 9.91 0 0 0 5.47-.85 1.56 1.56 0 0 1 1.9.48 12.67 12.67 0 0 0 20.14 0 1.58 1.58 0 0 1 1.91-.49 10.32 10.32 0 0 0 14-6 .84.84 0 0 1 .79-.59A10.36 10.36 0 0 0 73.4 42.2z"/></g></g></svg>