<svg xmlns="http://www.w3.org/2000/svg" viewBox="0 0 76.26 49.64"><defs><style>.cls-2,.cls-3{fill:none;stroke-miterlimit:10;stroke:#000}.cls-2{stroke-width:1.5px}.cls-3{stroke-width:2px}</style></defs><g id="Layer_2" data-name="Layer 2"><g id="Layer_1-2" data-name="Layer 1"><path d="M72.88 23.39A9.81 9.81 0 0 0 71 19.73a9.56 9.56 0 0 0-2.42-2.24A10.43 10.43 0 0 0 64.44 16c-.2 0-.45-.31-.54-.53a10 10 0 0 0-10.7-6.54 17.43 17.43 0 0 0-3.55.93 1.07 1.07 0 0 1-1.18-.41 11.86 11.86 0 0 0-4.6-3.91 13.08 13.08 0 0 0-2-.79c-.36-.1-.72-.2-1.1-.28a10.43 10.43 0 0 0-3-.18 12.07 12.07 0 0 0-1.2.14c-.57.09-1 .19-1.15.23h-.12a20.65 20.65 0 0 0-4.17 2 28.87 28.87 0 0 0-3.42 3.33l-.1-.05a11.38 11.38 0 0 0-5.18-1.24 9.79 9.79 0 0 0-4.56 1.08 10.75 10.75 0 0 0-4.72 5 2.17 2.17 0 0 1-1.34 1 10.8 10.8 0 0 0-2.84 1 9.33 9.33 0 0 0-3.54 3.14c-.15.21-.29.42-.43.65A11.67 11.67 0 0 0 3.68 24a8.8 8.8 0 0 0 0 3.34A10 10 0 0 0 12 35.56a1.16 1.16 0 0 1 1 .84 10.24 10.24 0 0 0 14 5.43 1 1 0 0 1 1.25.32 12.48 12.48 0 0 0 20.18.1 1 1 0 0 1 1.25-.31 10.16 10.16 0 0 0 14.14-5.52.84.84 0 0 1 .78-.57 10 10 0 0 0 8.28-12.46z" style="fill:#e5f1fb"/><path class="cls-2" d="M19.22 19.16v3.91M17.83 17.74l1.4 1.4 1.41-1.41M19.25 29.04v-3.91M20.64 30.46l-1.39-1.4-1.42 1.42M23.42 26.73l-3.32-2.08M23.88 28.67l-.44-1.93 1.95-.45M15.05 21.47l3.32 2.08M14.59 19.53l.45 1.93-1.95.45M15.05 26.72l3.32-2.07M14.58 28.66l.45-1.93-1.95-.45M23.42 21.48l-3.32 2.07M23.89 19.54l-.45 1.93 1.95.45"/><circle class="cls-2" cx="19.17" cy="24.12" r="1.38"/><path class="cls-3" d="M38.36 17.2v5.46M36.41 15.21l1.96 1.95 1.97-1.97M38.39 31v-5.46M40.34 32.99l-1.95-1.95-1.98 1.97M44.22 27.77l-4.63-2.89M44.87 30.48l-.62-2.69 2.73-.63M32.53 20.43l4.64 2.89M31.89 17.72l.62 2.69-2.73.63M32.53 27.77l4.64-2.9M31.88 30.47l.62-2.69-2.73-.63M44.23 20.43l-4.64 2.9M44.88 17.73l-.62 2.69 2.72.63"/><circle class="cls-3" cx="38.29" cy="24.12" r="1.93"/><path class="cls-2" d="M56.76 19.16v3.91M55.36 17.74l1.4 1.4 1.42-1.41M56.78 29.04v-3.91M58.18 30.46l-1.4-1.4-1.42 1.42M60.95 26.73l-3.31-2.08M61.41 28.67l-.44-1.93 1.95-.45M52.59 21.47l3.31 2.08M52.13 19.53l.44 1.93-1.95.45M52.59 26.72l3.31-2.07M52.12 28.66l.44-1.93-1.94-.45M60.96 21.48l-3.32 2.07M61.42 19.54l-.44 1.93 1.94.45"/><circle class="cls-2" cx="56.71" cy="24.12" r="1.38"/><path d="M73.4 22.15a9.69 9.69 0 0 0-1.72-3.46 10.33 10.33 0 0 0-3.24-2.93 10.58 10.58 0 0 0-3.7-1.24 1 1 0 0 1-.56-.55 10.26 10.26 0 0 0-11-6.7 16.1 16.1 0 0 0-3.36.89 1.4 1.4 0 0 1-1.58-.49 12.34 12.34 0 0 0-4.58-3.87 13.2 13.2 0 0 0-2.1-.8c-.36-.11-.73-.21-1.12-.29a10.53 10.53 0 0 0-3-.17 12 12 0 0 0-1.22.15A11 11 0 0 0 35 3a22.08 22.08 0 0 0-4.32 2.16 30.78 30.78 0 0 0-3.48 3.47l-.1-.05a11.55 11.55 0 0 0-5.3-1.35 9.79 9.79 0 0 0-4.7 1.1 11.12 11.12 0 0 0-5 5.62 1.12 1.12 0 0 1-.76.6A11.52 11.52 0 0 0 8 15.63a9.65 9.65 0 0 0-3.6 3.28c-.15.22-.3.44-.44.68a12.13 12.13 0 0 0-1.33 3.53 9.24 9.24 0 0 0 0 3.47 10.32 10.32 0 0 0 8.51 8.49 1.19 1.19 0 0 1 1 .86 10.24 10.24 0 0 0 8.51 6.59 10 10 0 0 0 5.47-.85 1.55 1.55 0 0 1 1.9.48 12.67 12.67 0 0 0 20.14 0 1.57 1.57 0 0 1 1.91-.5 10.32 10.32 0 0 0 14-6 .85.85 0 0 1 .79-.6 10.36 10.36 0 0 0 8.54-12.91z" style="stroke:#231f20;stroke-width:5px;fill:none;stroke-miterlimit:10"/></g></g></svg>